<svg width="133" height="108" viewBox="0 0 133 108" fill="none" xmlns="http://www.w3.org/2000/svg">
    <g clip-path="url(#clip0)">
        <path d="M66.743 108C95.0839 108 118.059 84.9953 118.059 56.6176C118.059 28.2398 95.0839 5.23511 66.743 5.23511C38.4021 5.23511 15.4272 28.2398 15.4272 56.6176C15.4272 84.9953 38.4021 108 66.743 108Z" fill="white"/>
        <path d="M88.9828 59.532L69.8751 59.5355C61.8099 59.537 55.2706 52.9915 55.2692 44.9159L55.2686 41.6643C55.2671 33.5887 61.804 27.0409 69.8691 27.0394L88.9768 27.0359C97.042 27.0344 103.581 33.5798 103.583 41.6554L103.583 44.907C103.585 52.9827 97.0479 59.5305 88.9828 59.532Z" fill="#C3C3E1"/>
        <path d="M70.485 45.5608C71.7385 45.5608 72.7546 44.5433 72.7546 43.2882C72.7546 42.0331 71.7385 41.0156 70.485 41.0156C69.2315 41.0156 68.2153 42.0331 68.2153 43.2882C68.2153 44.5433 69.2315 45.5608 70.485 45.5608Z" fill="#8B8CC4"/>
        <path d="M79.4259 45.5582C80.6794 45.5582 81.6955 44.5408 81.6955 43.2857C81.6955 42.0305 80.6794 41.0131 79.4259 41.0131C78.1724 41.0131 77.1562 42.0305 77.1562 43.2857C77.1562 44.5408 78.1724 45.5582 79.4259 45.5582Z" fill="#8B8CC4"/>
        <path d="M88.3668 45.5565C89.6203 45.5565 90.6364 44.5391 90.6364 43.284C90.6364 42.0288 89.6203 41.0114 88.3668 41.0114C87.1133 41.0114 86.0972 42.0288 86.0972 43.284C86.0972 44.5391 87.1133 45.5565 88.3668 45.5565Z" fill="#8B8CC4"/>
        <path d="M90.0647 59.5318C90.0638 54.2397 94.3475 49.9488 99.6327 49.9478C99.7371 49.9478 99.8383 49.9601 99.9419 49.9634C98.1953 48.0959 95.7178 46.9223 92.961 46.9229C87.6758 46.9238 83.3921 51.2147 83.3931 56.5067C83.394 61.6943 87.5144 65.9077 92.6552 66.0716C91.0534 64.3589 90.0652 62.0634 90.0647 59.5318Z" fill="#C3C3E1"/>
        <path d="M25.4049 39.3471L58.1713 39.3411C62.4647 39.3403 65.9446 35.8546 65.9438 31.5556L65.9407 14.6276C65.9399 10.3286 62.4588 6.84421 58.1654 6.84497L25.3989 6.85101C21.1056 6.85182 17.6257 10.3375 17.6265 14.6364L17.6296 31.5645C17.6303 35.8636 21.1114 39.3479 25.4049 39.3471Z" fill="#E1DFDD"/>
        <path d="M27.1714 35.9978C27.7421 37.2218 28.0649 38.5843 28.0652 40.0249C28.0657 42.5566 27.0783 44.8524 25.4771 46.5657C30.6178 46.3999 34.7367 42.1851 34.7358 36.9975C34.7357 36.6586 34.7118 36.3258 34.6762 35.9965L27.1714 35.9978Z" fill="#E1DFDD"/>
        <path d="M54.5034 17.9181H29.0649V21.1291H54.5034V17.9181Z" fill="#C8C6C4"/>
        <path d="M49.733 25.0636H29.0664V28.2746H49.733V25.0636Z" fill="#C8C6C4"/>
        <path d="M98.8619 69.3802L89.3791 75.3098L83.9946 98.6333L109.201 104.468L116.366 73.4318L98.8619 69.3802Z" fill="#C3C3E1"/>
        <path d="M98.8621 69.3802L97.0797 77.1009L89.3774 75.3181L98.8621 69.3802Z" fill="#8B8CC4"/>
        <path d="M108.088 84.0385L93.9492 80.7662L93.2381 83.8466L107.377 87.1189L108.088 84.0385Z" fill="#8B8CC4"/>
        <path d="M103.977 89.7706L92.4897 87.1121L91.77 90.23L103.257 92.8885L103.977 89.7706Z" fill="#8B8CC4"/>
        <path d="M126.409 58.4064C125.933 59.4166 125.662 60.5423 125.657 61.7336C125.648 63.8272 126.456 65.7291 127.775 67.1515C123.524 66.9968 120.132 63.4972 120.15 59.2073C120.152 58.927 120.173 58.6518 120.203 58.3796L126.409 58.4064Z" fill="#E1DFDD"/>
        <path d="M133.001 54.29C133.022 49.4112 127.965 45.4342 121.706 45.4073C115.447 45.3803 110.356 49.3136 110.335 54.1924C110.314 59.0713 115.371 63.0482 121.63 63.0752C127.889 63.1021 132.98 59.1689 133.001 54.29Z" fill="#E1DFDD"/>
        <path d="M119.217 62.8647C119.217 62.8647 120.997 63.0883 122.358 64.7267L126.038 64.1898C126.038 64.1898 125.527 62.6868 127.856 61.6539L119.217 62.8647Z" fill="#E1DFDD"/>
        <path d="M8.07276 64.0173C8.7522 65.0875 9.21761 66.3167 9.39217 67.6578C9.69897 70.0144 9.05767 72.2714 7.77441 74.0607C12.5399 73.2826 15.8642 68.8592 15.2355 64.0301C15.1944 63.7146 15.1319 63.4077 15.059 63.1055L8.07276 64.0173Z" fill="#C3C3E1"/>
        <path d="M14.1203 68.5966C21.1656 67.6767 26.2971 62.479 25.5819 56.9872C24.8667 51.4953 18.5757 47.789 11.5304 48.7088C4.48521 49.6287 -0.646305 54.8264 0.0688771 60.3183C0.784059 65.8101 7.07511 69.5165 14.1203 68.5966Z" fill="#C3C3E1"/>
        <path d="M16.8052 68.0167C16.8052 68.0167 14.8323 68.5214 13.5309 70.5602L9.31043 70.4783C9.31043 70.4783 9.67323 68.7129 6.90332 67.8805L16.8052 68.0167Z" fill="#C3C3E1"/>
        <path d="M65.9456 27.5817L65.9463 31.5542C65.9471 35.8538 62.4626 39.3387 58.1738 39.3396L55.4512 39.3401C56.3577 33.6694 60.5109 29.0886 65.9456 27.5817Z" fill="#8B8CC4"/>
        <path d="M27.1313 106.249L70.3644 100.141C72.4316 99.8485 73.871 97.9338 73.5793 95.8638L69.8285 69.2459C69.5368 67.176 67.6246 65.7348 65.5573 66.0268L22.3242 72.1349C20.257 72.427 18.8177 74.3416 19.1093 76.4116L22.8602 103.029C23.1519 105.099 25.0641 106.541 27.1313 106.249Z" fill="#C8C6C4"/>
        <path d="M46.1513 91.1652C49.6796 91.1652 52.5398 88.3012 52.5398 84.7683C52.5398 81.2354 49.6796 78.3715 46.1513 78.3715C42.623 78.3715 39.7627 81.2354 39.7627 84.7683C39.7627 88.3012 42.623 91.1652 46.1513 91.1652Z" fill="#8B8CC4"/>
        <path d="M49.3854 83.6342L44.3121 81.585C43.7599 81.3619 43.1738 81.8211 43.257 82.4113L44.0213 87.8352C44.1044 88.4255 44.7946 88.7043 45.2635 88.337L49.5725 84.9623C50.0415 84.595 49.9375 83.8572 49.3854 83.6342Z" fill="#F3F2F1"/>
        <path d="M29.9572 101.657C29.5527 101.657 29.1997 101.358 29.1415 100.946C29.0779 100.494 29.3919 100.077 29.8429 100.013L66.0022 94.905C66.455 94.8414 66.8704 95.1558 66.9341 95.6073C66.9979 96.0588 66.6837 96.4763 66.2328 96.54L30.0734 101.648C30.0342 101.654 29.9954 101.657 29.9572 101.657Z" fill="#F3F2F1"/>
        <path d="M37.8846 103.208C36.1342 103.208 34.6297 101.898 34.3849 100.16C34.253 99.2231 34.4932 98.2904 35.0615 97.5343C35.63 96.7781 36.4584 96.289 37.3943 96.1566C37.5592 96.1334 37.7266 96.1218 37.892 96.1218C39.6429 96.1218 41.1477 97.4321 41.3923 99.1702C41.5245 100.107 41.2843 101.04 40.7158 101.796C40.1473 102.552 39.3189 103.041 38.383 103.173C38.2181 103.197 38.0505 103.208 37.8846 103.208Z" fill="#F3F2F1"/>
        <path d="M37.892 96.8767C39.2574 96.8766 40.4494 97.8829 40.6456 99.2756C40.8605 100.8 39.8002 102.211 38.2775 102.426C38.1457 102.445 38.0145 102.454 37.885 102.454C36.5196 102.454 35.3276 101.447 35.1313 100.055C34.9165 98.5299 35.9767 97.1195 37.4994 96.9044C37.6313 96.8858 37.7625 96.8767 37.892 96.8767ZM37.8922 95.3667H37.8921C37.6913 95.3667 37.4883 95.381 37.2888 95.4092C36.1535 95.5696 35.1485 96.1631 34.459 97.0803C33.7695 97.9976 33.4779 99.1288 33.6381 100.266C33.9352 102.374 35.7609 103.964 37.885 103.964C38.0856 103.964 38.2886 103.949 38.4882 103.921C40.8319 103.59 42.4696 101.411 42.1389 99.0646C41.8418 96.9564 40.0161 95.3667 37.8922 95.3667Z" fill="#C8C6C4"/>
        <path d="M95.2269 19.5236C98.4577 19.5236 101.077 16.9011 101.077 13.6661C101.077 10.4311 98.4577 7.80859 95.2269 7.80859C91.996 7.80859 89.377 10.4311 89.377 13.6661C89.377 16.9011 91.996 19.5236 95.2269 19.5236Z" fill="#E1DFDD"/>
        <path d="M86.0974 5.88301C87.7198 5.88301 89.035 4.56605 89.035 2.94151C89.035 1.31696 87.7198 0 86.0974 0C84.4749 0 83.1597 1.31696 83.1597 2.94151C83.1597 4.56605 84.4749 5.88301 86.0974 5.88301Z" fill="white"/>
    </g>
    <defs>
        <clipPath id="clip0">
            <rect width="133" height="108" fill="white"/>
        </clipPath>
    </defs>
</svg>
