<svg width="190" height="110" viewBox="0 0 190 110" fill="none" xmlns="http://www.w3.org/2000/svg">
    <g clip-path="url(#clip0)">
        <path d="M105.061 110H35.377C29.3361 110 24.3936 105.138 24.3936 99.0607V55.1823H105.061V110Z" fill="#D0D1EF"/>
        <path d="M44.8957 105.685C43.0041 107.691 42.3329 109.028 40.6854 110H35.3767C32.3867 110 29.7019 108.845 27.7493 106.901C26.6509 103.072 25.1254 100.337 24.9424 97.4807C25.7356 96.7514 27.4442 94.0166 28.6646 93.7127C29.946 93.4088 31.1664 93.4696 31.8986 94.9889C31.9596 95.1105 32.0206 95.2928 32.0816 95.4751C32.6918 97.2983 32.5088 99.1215 32.7529 100.884C35.9259 97.663 41.1735 96.326 41.4176 96.2652C41.3566 96.3867 39.9531 98.6354 38.2446 103.376C37.8785 104.409 37.1463 105.867 36.292 107.448C36.6581 107.083 37.0852 106.779 37.6344 106.475C39.343 105.503 41.7837 106.11 44.8957 105.685Z" fill="#A6A7DC"/>
        <path d="M32.0819 95.4144C31.8379 94.8067 30.8616 93.7735 29.8853 93.8951C28.2987 94.0166 27.3224 95.6575 26.5292 96.873C24.0274 100.519 20.4272 99.0608 20.4272 99.0608C20.4272 99.0608 20.9764 98.5139 21.6476 97.1161C22.4409 95.0498 22.1358 94.0774 23.6003 93.5304C24.1494 93.3481 25.3088 93.5912 26.4682 93.4089C27.8716 93.2265 29.031 92.0718 30.6785 93.105C31.5328 93.7735 32.0819 95.4144 32.0819 95.4144Z" fill="#999BD3"/>
        <path opacity="0.5" d="M31.8989 109.453C31.2277 109.21 30.5565 108.906 29.9463 108.541C30.0683 106.232 30.4955 103.923 31.4718 102.343C31.8379 101.796 32.265 101.249 32.7532 100.762C33.1193 103.923 32.7532 106.84 31.8989 109.453Z" fill="#8B8CC7"/>
        <path d="M105.061 55.1823H24.3936V11.2431C24.3936 5.22649 29.2751 0.303833 35.377 0.303833H105.061V55.1823Z" fill="#E1DFDD"/>
        <path d="M185.607 55.1823H104.939V0.303833H174.623C180.664 0.303833 185.607 5.16571 185.607 11.2431V55.1823Z" fill="#BDBDE6"/>
        <path d="M120.194 56.0331H166.935C166.935 56.0331 166.813 55 166.874 54.453C167.24 52.0829 172.426 51.779 171.389 46.1878C170.779 42.8453 165.592 42.3591 164.921 39.3204C164.311 36.2817 166.996 34.337 165.775 31.4806C164.494 28.5635 161.26 28.3204 159.307 25.7072C157.599 23.337 157.538 22.1823 157.599 20.2983C157.782 15.6795 155.829 12.884 152.717 11.1823C151.619 10.5746 150.337 10.1491 149.056 10.0884L146.127 9.90605C144.785 9.84528 143.564 10.0276 142.405 10.5138C141.368 10.9392 140.33 11.5469 139.476 12.337C137.706 13.9779 136.486 16.4088 136.364 19.0221C136.303 20.1768 135.51 22.1823 133.74 24.1878C131.482 26.6795 127.76 26.3149 126.174 29.0497C124.587 31.8453 127.516 34.337 126.54 37.3149C125.503 40.2928 120.438 40.1105 118.912 43.2099C116.899 47.2817 121.841 50.2597 121.658 53.116C121.536 54.3315 121.475 55.4862 120.194 56.0331Z" fill="white"/>
        <path d="M130.018 56.8232H162.297V50.0773C162.297 41.9944 155.707 35.4309 147.592 35.4309H144.724C136.608 35.4309 130.018 41.9944 130.018 50.0773V56.8232Z" fill="#797673"/>
        <path d="M148.69 28.6851H143.625V36.1602H148.69V28.6851Z" fill="url(#paint0_radial)"/>
        <path d="M141.246 35.8563C143.564 35.2486 143.625 32.8784 143.625 32.8784H148.69C148.69 32.8784 148.751 35.2486 151.07 35.8563C150.704 36.1602 148.507 37.4972 146.249 37.4972C143.991 37.4972 141.673 36.1602 141.246 35.8563Z" fill="#797673"/>
        <path d="M149.928 23.6981C150.061 23.0743 149.901 22.5121 149.572 22.4424C149.242 22.3727 148.867 22.8219 148.734 23.4457C148.601 24.0695 148.76 24.6317 149.09 24.7014C149.42 24.7711 149.795 24.3219 149.928 23.6981Z" fill="#33312D"/>
        <path d="M143.956 22.4025C144.089 21.7787 143.929 21.2164 143.6 21.1467C143.27 21.077 142.895 21.5262 142.762 22.15C142.629 22.7738 142.788 23.3361 143.118 23.4058C143.448 23.4755 143.823 23.0263 143.956 22.4025Z" fill="#33312D"/>
        <path d="M144.846 30.7513L144.662 30.6905C140.818 29.9004 138.316 25.9502 139.11 21.696V21.6352C139.781 17.8673 143.259 15.254 146.798 15.9833L148.934 16.4087C152.473 17.138 154.609 20.906 153.632 24.6739V24.7347C152.534 28.9888 148.629 31.6021 144.846 30.7513Z" fill="#FADCBD"/>
        <path d="M141.367 19.9944L146.798 21.1491L145.578 27.0441L140.086 25.8894L141.367 19.9944Z" fill="url(#paint1_radial)"/>
        <path d="M148.324 23.3977C148.995 22.7292 149.849 22.9723 150.215 23.4585C150.642 23.9447 150.703 24.674 150.093 24.3093C149.849 24.1878 149.666 23.8839 149.056 23.8839C148.812 23.8839 148.141 24.0662 148.141 23.6408C148.202 23.5801 148.263 23.4585 148.324 23.3977Z" fill="#33312D"/>
        <path d="M144.296 22.7292C144.113 23.0938 143.625 22.6684 143.381 22.5468C142.832 22.3038 142.527 22.4253 142.283 22.4861C141.55 22.4861 141.917 21.8783 142.527 21.6352C143.076 21.3922 143.991 21.5745 144.235 22.4253C144.296 22.4861 144.296 22.6684 144.296 22.7292Z" fill="#33312D"/>
        <path d="M156.622 23.7016C155.829 23.9447 154.975 24.0054 154.06 23.8231C151.314 23.2154 149.483 20.6021 149.91 17.8673L145.395 16.8949C144.663 19.569 141.917 21.2706 139.171 20.6629C138.194 20.4806 137.401 20.0552 136.791 19.4474C136.791 19.022 141.551 12.8231 141.551 12.8231L155.341 15.7402C155.28 15.7402 156.805 23.2762 156.622 23.7016Z" fill="white"/>
        <path d="M150.032 17.4419C150.093 16.8949 149.666 16.2872 149.117 16.1656C148.568 16.0441 147.957 16.4087 147.774 16.9557L147.652 17.3811L149.91 17.8673C149.91 17.8673 149.971 17.5026 150.032 17.4419Z" fill="#BDBDE6"/>
        <path d="M146.859 15.6794C146.31 15.5579 145.7 15.9225 145.517 16.4695L145.395 16.8949L147.652 17.3811L147.774 16.9557C147.835 16.3479 147.53 15.801 146.859 15.6794Z" fill="#BDBDE6"/>
        <path d="M147.47 21.2098C147.47 21.2098 146.981 21.2706 146.615 22.3038C146.066 23.58 145.09 23.4585 145.09 24.4916C145.09 25.0993 145.883 25.5248 145.822 25.9502C145.761 26.0109 148.263 26.0717 147.47 21.2098Z" fill="#FADCBD"/>
        <path d="M144.723 26.9833C145.212 27.1656 145.334 27.2264 145.944 27.1656C146.493 27.1656 146.859 26.9833 147.103 26.9225C147.225 26.8618 147.408 26.9833 147.347 27.1656C147.286 27.4695 147.042 27.6518 146.737 27.8341C146.493 28.0165 146.188 28.0772 145.883 28.0772C145.578 28.0772 145.273 28.0165 144.968 27.8341C144.723 27.6518 144.479 27.4087 144.418 27.1049C144.357 27.0441 144.479 26.8618 144.723 26.9833C144.723 26.9833 144.968 27.1049 144.723 26.9833Z" fill="#E38BB0"/>
        <path d="M155.646 56.0331H162.297V50.6243C162.297 48.558 160.65 46.9171 158.575 46.9171H155.585V56.0331H155.646Z" fill="url(#paint2_linear)"/>
        <path d="M136.73 56.0331H130.079V50.6243C130.079 48.558 131.727 46.9171 133.801 46.9171H136.791V56.0331H136.73Z" fill="url(#paint3_linear)"/>
        <path d="M174.623 110H104.939V55.1823H185.607V99.0607C185.607 105.138 180.664 110 174.623 110Z" fill="#C8C6C4"/>
    <g opacity="0.5">
        <path opacity="0.5" d="M91.4536 24.8563H89.6841V55.4862H91.4536V24.8563Z" fill="#C8C6C4"/>
        <path opacity="0.5" d="M97.1286 28.1989H84.0704C83.5823 28.1989 83.1551 27.7127 83.3382 27.2265L85.901 17.0773C85.962 16.7127 86.3281 16.4696 86.6332 16.4696H94.5047C94.8708 16.4696 95.1759 16.7127 95.237 17.0773L97.7998 27.2265C97.9828 27.7127 97.6167 28.1989 97.1286 28.1989Z" fill="#C8C6C4"/>
    <g opacity="0.5">
        <path opacity="0.5" d="M94.8099 25.5249H94.1997V35.9779H94.8099V25.5249Z" fill="#C8C6C4"/>
    </g>
        <path opacity="0.5" d="M94.5047 36.9503C94.8754 36.9503 95.1759 36.651 95.1759 36.2818C95.1759 35.9126 94.8754 35.6133 94.5047 35.6133C94.134 35.6133 93.8335 35.9126 93.8335 36.2818C93.8335 36.651 94.134 36.9503 94.5047 36.9503Z" fill="#C8C6C4"/>
    </g>
        <path d="M170.596 110H117.082C117.936 101.674 123.184 94.6244 130.506 91.2211C131.91 90.5525 133.374 90.0664 134.9 89.7017C136.73 89.2763 138.622 89.0332 140.513 89.0332H147.165C148.751 89.0332 150.338 89.2155 151.863 89.5194C153.389 89.8233 154.853 90.2487 156.256 90.8564C164.067 94.0166 169.681 101.309 170.596 110Z" fill="url(#paint4_linear)"/>
        <path d="M156.256 90.8563V110H151.863V89.5193C153.388 89.8232 154.853 90.2486 156.256 90.8563Z" fill="#605D5A"/>
        <path d="M134.899 89.7017V110H130.506V91.221C131.909 90.5525 133.374 90.0663 134.899 89.7017Z" fill="#605D5A"/>
        <path d="M135.449 76.3924L150.948 76.5139L151.009 69.525C151.009 67.8233 149.788 66.4255 148.263 66.4255L138.317 66.304C136.73 66.304 135.51 67.7017 135.51 69.4034L135.449 76.3924Z" fill="#BF8F68"/>
        <path d="M149.239 74.7513H137.645L137.706 87.0276C137.706 87.8176 137.157 89.1547 136.791 89.337C140.757 92.4364 147.103 91.464 150.276 89.2762C149.727 89.2154 149.361 87.5745 149.361 86.5414L149.239 74.7513Z" fill="url(#paint5_linear)"/>
        <path d="M135.449 79.2486C136.864 79.2486 138.011 78.1059 138.011 76.6962C138.011 75.2865 136.864 74.1437 135.449 74.1437C134.033 74.1437 132.886 75.2865 132.886 76.6962C132.886 78.1059 134.033 79.2486 135.449 79.2486Z" fill="url(#paint6_linear)"/>
        <path d="M151.009 79.1879C152.424 79.1879 153.571 78.0451 153.571 76.6354C153.571 75.2257 152.424 74.0829 151.009 74.0829C149.593 74.0829 148.446 75.2257 148.446 76.6354C148.446 78.0451 149.593 79.1879 151.009 79.1879Z" fill="url(#paint7_linear)"/>
        <path d="M141.673 86.4199H144.602C148.141 86.4199 150.948 83.7458 150.948 80.2818L151.009 71.8342C151.009 70.0718 149.483 68.5525 147.653 68.5525L138.988 68.4917C137.096 68.4917 135.51 70.011 135.51 71.8342L135.388 80.3425C135.449 83.6243 138.195 86.4199 141.673 86.4199Z" fill="#BF8F68"/>
        <path d="M141.124 80.8895H145.212C147.836 80.8895 149.911 78.6409 149.911 75.906V69.8895C149.056 69.1602 148.812 67.2762 147.409 67.2154L139.049 67.1547C137.585 67.1547 136.425 68.3701 136.425 69.8287V75.7845C136.486 78.6408 138.561 80.8895 141.124 80.8895Z" fill="#E0BB95"/>
        <path d="M146.535 75.5727C146.538 74.9685 146.267 74.4773 145.93 74.4754C145.593 74.4736 145.317 74.9618 145.314 75.566C145.311 76.1702 145.581 76.6614 145.918 76.6633C146.255 76.6651 146.531 76.1768 146.535 75.5727Z" fill="#33312D"/>
        <path d="M140.025 70.9834C142.222 70.3757 142.466 69.2818 144.663 68.3702C147.287 67.0332 148.812 69.1602 148.812 69.1602L149.239 68.9171C149.239 68.3094 148.69 67.5194 148.568 66.9116C148.568 64.663 146.92 63.2652 144.846 63.8729C142.039 64.663 142.71 63.326 140.818 63.2044C139.049 63.0829 138.988 64.8453 138.195 65.0276C136.242 65.5746 136.547 62.2928 133.984 63.2044C130.201 64.2984 130.689 73.779 140.025 70.9834Z" fill="#BF8F68"/>
        <path d="M136.913 83.3205H143.015V79.9172C143.015 79.6133 142.893 79.3702 142.588 79.2487L141.367 78.4586C141.062 78.2763 141.001 77.9117 141.184 77.6686L142.222 76.0885C142.466 75.663 142.649 75.2376 142.649 74.7514V70.4365H136.547L136.913 83.3205Z" fill="url(#paint8_radial)"/>
        <path d="M150.337 68.0055C150.337 68.0055 148.324 68.4917 148.568 70.6795C148.69 71.6519 149.117 72.0773 149.666 72.8066C150.215 73.5359 150.215 74.569 150.215 74.569L150.765 74.1436L150.337 68.0055Z" fill="#BF8F68"/>
        <path d="M140.602 75.5976C140.606 74.9934 140.335 74.5022 139.998 74.5003C139.661 74.4985 139.385 74.9867 139.382 75.5909C139.379 76.195 139.649 76.6863 139.986 76.6882C140.323 76.69 140.599 76.2017 140.602 75.5976Z" fill="#33312D"/>
        <path d="M145.334 79.6133C145.09 79.6133 144.785 79.6741 144.601 79.7956C144.052 80.1602 143.747 80.221 143.442 80.2818C143.137 80.2818 142.71 80.2818 142.405 80.1602H142.344C141.673 79.8564 140.94 80.1602 140.574 80.768C140.391 81.1326 140.33 81.4365 140.452 81.8619C140.696 82.5304 141.184 83.1989 141.978 83.5028C142.527 83.8067 143.32 83.8674 143.93 83.7459C145.456 83.5636 147.225 81.8011 146.493 80.2818C146.31 79.9172 145.883 79.6133 145.334 79.6133Z" fill="#BF8F68"/>
        <path d="M145.517 80.9503C145.334 82.8343 142.466 83.0774 141.673 81.4973C141.612 81.3757 141.673 81.0719 141.978 81.1934C143.381 81.7404 144.48 81.0719 145.151 80.6465C145.456 80.5249 145.517 80.8895 145.517 80.9503Z" fill="#9B643D"/>
        <path d="M150.033 94.3204H136.974C136.547 94.3204 136.242 93.9558 136.242 93.5912V87.5138C136.242 87.0884 136.608 86.7845 136.974 86.7845H150.033C150.46 86.7845 150.765 87.1492 150.765 87.5138V93.5304C150.765 94.0166 150.399 94.3204 150.033 94.3204Z" fill="white"/>
        <path d="M147.287 92.7403L143.198 90.7348L139.11 92.7403C138.683 92.9226 138.256 92.558 138.256 92.0718V88.1215C138.256 87.5746 138.744 87.2707 139.11 87.5138L143.198 89.5801L147.287 87.5138C147.714 87.2707 148.141 87.6961 148.141 88.1215V92.0718C148.202 92.6795 147.714 92.9834 147.287 92.7403Z" fill="url(#paint9_linear)"/>
        <path d="M152.839 91.768C152.656 91.4642 152.351 91.2211 152.107 91.2211L148.751 90.431C148.446 90.3702 148.202 90.4918 148.08 90.7349L146.981 92.6189C146.92 92.7404 146.92 92.9227 146.981 93.0443C147.103 93.2874 147.53 93.3481 147.653 93.0443L148.324 92.0111C148.446 91.8288 148.751 91.7073 148.934 91.768L150.581 92.1327L147.958 92.4973L147.775 93.0443C147.53 93.8951 147.53 94.8067 147.775 95.7183L147.897 96.2653C147.958 96.5691 148.446 96.6299 148.507 96.326L149.117 95.4752L150.337 95.6575C150.337 95.6575 150.52 97.1769 151.68 98.3316C152.839 99.4863 154.731 100.519 154.731 100.519L156.744 98.6962L152.839 91.768Z" fill="#E0BB95"/>
        <path d="M166.63 110H156.256L152.961 101.735L156.806 98.5747L166.63 110Z" fill="white"/>
        <path d="M133.557 92.0112C133.74 91.7073 133.984 91.4642 134.289 91.4642L137.645 90.5526C137.951 90.4918 138.195 90.6134 138.317 90.8565L139.537 92.6797C139.598 92.8012 139.598 92.9835 139.537 93.1051C139.415 93.4089 138.988 93.409 138.866 93.1659L138.073 92.0719C137.951 91.8896 137.768 91.8288 137.584 91.8896L135.876 92.3758L138.5 92.6189L138.683 93.1659C138.988 94.0167 138.988 94.9283 138.805 95.8399L138.683 96.3869C138.622 96.6907 138.195 96.7515 138.073 96.4476L137.462 95.5968L136.242 95.8399C136.242 95.8399 136.12 97.3592 135.022 98.5139C133.923 99.6686 132.032 100.823 132.032 100.823L129.957 99.1217L133.557 92.0112Z" fill="#E0BB95"/>
        <path d="M133.618 102.099L130.445 110H120.377L129.835 99L133.618 102.099Z" fill="white"/>
        <path d="M69.1816 24.127L61.4321 23.8839L61.3711 38.5911L65.0323 39.4419L69.1206 38.6519V24.127H69.1816Z" fill="url(#paint10_radial)"/>
        <path d="M34.5835 43.0883C27.5052 41.3867 26.773 29.7182 26.651 27.4696C26.8951 27.0441 27.3222 26.2541 27.3832 25.464C27.5663 23.2762 27.1391 20.1767 26.3459 19.9336C25.3085 19.569 25.2475 23.0331 25.2475 23.0331C25.2475 23.0331 23.2339 17.6242 22.3186 17.8673C21.8304 17.9889 22.1966 18.9005 22.5627 19.7513C22.0135 18.5966 21.4033 17.1988 20.7931 17.6242C20.488 17.8673 20.6711 18.5358 20.9152 19.1436C20.7321 18.7789 20.2439 18.5359 20.0609 18.9613C19.9388 19.2044 19.9999 19.6905 20.305 20.4198C20.305 20.4198 20.2439 20.4198 20.2439 20.4806C19.3897 21.6353 21.2813 25.6463 22.0745 26.801C22.6237 27.5911 23.1729 28.3812 23.1729 28.3812C23.1729 28.3812 22.6237 47.7071 30.0681 51.4751C38.3057 55.6077 55.3911 51.8397 55.3911 51.8397C55.3911 51.8397 57.5878 45.4585 59.0523 36.7071C48.1298 36.7071 42.0889 46.9171 34.5835 43.0883Z" fill="#9B643D"/>
        <path d="M71.5001 36.5248L65.2761 35.3701L60.3336 36.4033C59.9064 36.4033 59.4793 36.464 59.0521 36.5248C46.1771 36.7679 44.2855 45.7624 34.5224 42.7845C31.8375 41.9944 30.5561 40.5359 29.2747 37.9226C29.2747 37.9226 25.6135 40.5359 24.6982 42.2983C25.9796 49.895 29.6408 53.9668 35.3156 55.9723C40.3802 57.7348 46.2991 56.337 48.9229 55.1823C48.9229 55.1823 85.5346 55.1823 87.06 55.1823C85.5956 42.7237 77.8461 37.8618 71.5001 36.5248Z" fill="#E8A1BF"/>
        <path d="M71.5001 36.5248L65.2761 35.3701L60.3336 36.4033C59.9064 36.4033 59.4793 36.464 59.0521 36.5248C46.1771 36.7679 44.2855 45.7624 34.5224 42.7845C31.8375 41.9944 30.5561 40.5359 29.2747 37.9226C29.2747 37.9226 25.6135 40.5359 24.6982 42.2983C25.9796 49.895 29.6408 53.9668 35.3156 55.9723C40.3802 57.7348 46.2991 56.337 48.9229 55.1823C48.9229 55.1823 85.5346 55.1823 87.06 55.1823C85.5956 42.7237 77.8461 37.8618 71.5001 36.5248Z" fill="#E8A1BF"/>
        <path d="M29.2748 37.8618C28.2985 38.2872 23.539 40.232 23.539 40.232L23.2949 46.674L32.875 42.116C32.875 42.116 30.3121 39.685 29.2748 37.8618Z" fill="white"/>
        <path d="M69.6085 33.1823L65.2761 35.127L60.9438 33.1823C60.9438 33.1823 59.6624 36.2817 58.7471 36.5856C60.3336 37.5579 63.7507 38.7734 63.7507 38.7734L65.2761 35.8563L66.8016 38.7734C66.8016 38.7734 70.0357 37.5579 71.5001 36.5856C70.5848 36.2817 69.6085 33.1823 69.6085 33.1823Z" fill="white"/>
        <path d="M56.0625 21.8785C56.0015 23.2155 57.0998 24.2486 58.4422 24.3094C58.5643 24.3094 59.7847 24.3094 59.7847 24.3094C61.0051 24.1879 60.822 23.1547 60.883 21.9392C60.883 20.663 61.0661 19.6906 59.9067 19.5691C59.7847 19.5691 58.5643 19.5083 58.5643 19.5083C57.1608 19.5083 56.0625 20.5415 56.0625 21.8785Z" fill="#9B643D"/>
        <path d="M72.9037 12.3978C73.3308 11.9724 73.6359 11.3646 73.6359 10.6961C73.6359 9.35909 72.5376 8.26517 71.1951 8.26517C70.829 8.26517 70.5239 8.32594 70.1578 8.50826C70.0358 7.23202 69.0595 6.19887 67.7781 6.19887C66.9848 6.19887 66.3136 6.56351 65.8864 7.17125C65.5203 6.38119 64.6661 5.83423 63.6897 5.83423C62.8355 5.83423 62.1643 6.19887 61.7371 6.86738C61.188 6.38119 60.4557 6.01655 59.6625 6.01655C57.9539 6.01655 56.6115 7.35357 56.6115 9.05522C56.6115 9.48064 56.7335 9.96683 56.9166 10.3315C56.0013 10.6961 55.3911 11.5469 55.3911 12.5801C55.3911 13.4309 55.8182 14.1602 56.4284 14.5856C56.3064 14.8895 56.2454 15.1326 56.2454 15.4364C56.2454 16.6519 57.2827 17.7458 58.5641 17.7458C59.8455 17.7458 60.8829 16.7127 60.8829 15.4364C60.8829 14.7072 60.5167 14.0994 60.0286 13.7348C60.2116 13.3701 60.3337 13.0055 60.3337 12.6409C60.3337 12.4585 60.3337 12.2762 60.2727 12.0939C61.31 11.9116 62.0422 11.2431 62.4694 10.3922C62.8355 10.6353 63.3236 10.7569 63.7508 10.7569C64.544 10.7569 66.8628 11.1215 67.8391 11.1215C68.2052 11.1215 68.5103 11.0607 68.8764 10.8784C68.9374 11.6685 69.3646 12.3978 69.9747 12.7624C69.5476 13.1878 69.2425 13.7956 69.2425 14.4641C69.2425 15.8011 70.3409 16.895 71.6833 16.895C73.0257 16.895 74.1851 15.8011 74.1241 14.4641C74.063 13.3094 73.5749 12.8232 72.9037 12.3978Z" fill="#594539"/>
        <path d="M72.7207 9.72375H57.771V22.8508H72.7207V9.72375Z" fill="url(#paint11_linear)"/>
        <path d="M65.8864 31.0552H64.4829C61.4319 30.9944 58.8081 28.3204 58.8081 25.3425V17.0165C58.8691 13.9778 61.3099 11.5469 64.3609 11.5469H66.1914C69.2424 11.6076 71.6832 14.0386 71.6832 17.0773L71.6222 25.4032C71.6222 28.4419 68.9373 31.0552 65.8864 31.0552Z" fill="#9B643D"/>
        <path d="M68.5727 20.0098C68.5813 19.3721 68.3151 18.8516 67.9781 18.8471C67.6412 18.8426 67.361 19.3558 67.3525 19.9935C67.3439 20.6311 67.6101 21.1517 67.947 21.1562C68.284 21.1607 68.5641 20.6474 68.5727 20.0098Z" fill="#3A312E"/>
        <path d="M60.3334 28.1382L65.0319 28.0774L65.1539 24.5525C65.1539 24.3094 65.0319 24.0056 64.8489 23.884L63.6895 23.094C63.4454 22.9116 63.4454 22.6078 63.5674 22.3039L64.5438 20.7846C64.7878 20.4199 64.9099 19.9945 64.9099 19.5083L64.9709 14.0995L60.0283 14.1603L60.3334 28.1382Z" fill="url(#paint12_radial)"/>
        <path opacity="0.6" d="M67.4731 25.2818H67.351L63.6288 25.9503C63.5678 25.9503 63.5678 25.9503 63.5678 25.9503C63.3848 26.0718 63.3237 26.1934 63.3237 26.4365C63.6898 27.4089 64.7882 28.0774 65.8865 27.895C66.9849 27.652 67.7782 26.7403 67.8392 25.7072C67.9002 25.4033 67.6561 25.221 67.4731 25.2818Z" fill="#231F20"/>
        <path d="M67.6561 25.3425C67.168 25.7071 66.4967 26.0718 65.5814 26.1933C64.7882 26.3756 63.9949 26.2541 63.3237 26.0718C63.3847 26.011 63.4458 25.9502 63.5068 25.8895H63.5678L67.29 25.2209H67.412C67.5341 25.2817 67.6561 25.2817 67.6561 25.3425Z" fill="#F8F8F8"/>
        <path d="M63.0991 20.0548C63.1077 19.4172 62.8415 18.8966 62.5045 18.8921C62.1675 18.8876 61.8874 19.4009 61.8788 20.0385C61.8702 20.6762 62.1364 21.1968 62.4734 21.2013C62.8104 21.2058 63.0905 20.6925 63.0991 20.0548Z" fill="#3A312E"/>
        <path d="M74.551 22C74.551 23.337 73.5137 24.3702 72.1712 24.3702C72.0492 24.3702 70.8288 24.3702 70.8288 24.3094C69.6084 24.1879 69.7915 23.1547 69.7915 21.9393C69.7915 20.7238 69.6695 19.6906 70.8288 19.5691C70.9509 19.5691 72.1712 19.5691 72.1712 19.5691C73.4527 19.6299 74.551 20.663 74.551 22Z" fill="#9B643D"/>
        <path d="M69.6698 9.90611L61.0661 9.84534L57.9541 13.8564L58.8694 19.4475L59.6626 15.3757C59.9067 14.0387 61.1271 13.1271 62.4695 13.1271L68.4494 13.1879C69.7919 13.1879 70.8902 14.1603 71.1953 15.4973L71.9275 19.5691L72.9038 13.9779L69.6698 9.90611Z" fill="url(#paint13_linear)"/>
        <path d="M70.3407 11.9724C69.9746 12.0332 69.6085 12.2763 69.3034 12.4586C68.8152 11.6078 67.7169 11.1823 66.7405 11.3647C65.3981 11.6078 64.5439 12.9448 64.8489 14.221C65.093 15.558 66.4355 16.4089 67.7169 16.105C68.083 16.0442 68.4491 15.8011 68.7542 15.6188C69.2423 16.4696 70.3407 16.895 71.317 16.7127C72.6594 16.4696 73.5137 15.1326 73.2086 13.8564C72.8425 12.5194 71.5611 11.7293 70.3407 11.9724Z" fill="#594539"/>
        <path d="M167.667 80.7679C172.014 80.7679 175.538 77.2579 175.538 72.9282C175.538 68.5984 172.014 65.0884 167.667 65.0884C163.32 65.0884 159.795 68.5984 159.795 72.9282C159.795 77.2579 163.32 80.7679 167.667 80.7679Z" fill="#E1DFDD"/>
        <path d="M171.45 73.7183L167.667 73.6575C167.423 73.6575 167.24 73.5359 167.057 73.3536L164.433 69.0387C164.25 68.7348 164.311 68.3094 164.616 68.1271C164.921 67.9448 165.348 68.0055 165.531 68.3094L167.972 72.3205L171.389 72.3812C171.755 72.3812 172.06 72.6851 172.06 73.1105C172.121 73.3536 171.877 73.7183 171.45 73.7183Z" fill="#C8C6C4"/>
        <path d="M104.939 109.939H96.8844C95.786 109.028 95.0538 107.873 93.4673 106.232C96.0911 106.597 98.5929 105.867 100.851 107.022C100.912 107.083 100.973 107.144 101.095 107.204C100.24 105.624 99.5082 104.287 99.2031 103.315C97.4946 98.5745 96.0911 96.3259 96.0301 96.2043C96.2742 96.2651 102.01 97.1767 104.573 101.552C104.695 101.735 104.817 101.978 104.939 102.221V109.939V109.939Z" fill="#A6A7DC"/>
        <path d="M71.9883 70.0111H56.3063L55.147 69.4034L56.3063 68.7957H71.9883C72.2934 68.7957 72.5375 69.0995 72.5375 69.4034C72.5375 69.768 72.2934 70.0111 71.9883 70.0111Z" fill="#E38BB0"/>
        <path d="M64.3 72.9282C67.0634 72.9282 69.3036 70.697 69.3036 67.9447C69.3036 65.1925 67.0634 62.9613 64.3 62.9613C61.5366 62.9613 59.2964 65.1925 59.2964 67.9447C59.2964 70.697 61.5366 72.9282 64.3 72.9282Z" fill="#594539"/>
        <path d="M64.3 72.9282C67.0634 72.9282 69.3036 70.697 69.3036 67.9447C69.3036 65.1925 67.0634 62.9613 64.3 62.9613C61.5366 62.9613 59.2964 65.1925 59.2964 67.9447C59.2964 70.697 61.5366 72.9282 64.3 72.9282Z" fill="url(#paint14_radial)"/>
        <path d="M64.3002 88.7293C69.7933 88.7293 74.2463 84.2942 74.2463 78.8232C74.2463 73.3522 69.7933 68.9171 64.3002 68.9171C58.8071 68.9171 54.354 73.3522 54.354 78.8232C54.354 84.2942 58.8071 88.7293 64.3002 88.7293Z" fill="#594539"/>
        <path d="M64.3003 88.79C68.5128 88.79 71.9277 85.3889 71.9277 81.1934C71.9277 76.9978 68.5128 73.5967 64.3003 73.5967C60.0878 73.5967 56.6729 76.9978 56.6729 81.1934C56.6729 85.3889 60.0878 88.79 64.3003 88.79Z" fill="#E0BB95"/>
        <path d="M64.2998 74.5691V88.7293C68.5101 88.7293 71.9272 85.326 71.9272 81.1326C71.9272 78.337 70.3407 75.7845 68.083 74.5083L64.2998 74.5691Z" fill="url(#paint15_linear)"/>
        <path d="M61.1273 84.9614C62.5764 84.9614 63.7511 83.7914 63.7511 82.3481C63.7511 80.9049 62.5764 79.7349 61.1273 79.7349C59.6781 79.7349 58.5034 80.9049 58.5034 82.3481C58.5034 83.7914 59.6781 84.9614 61.1273 84.9614Z" stroke="#8B8CC4" stroke-width="1.2802" stroke-miterlimit="10"/>
        <path d="M67.3509 84.9614C68.8 84.9614 69.9747 83.7914 69.9747 82.3481C69.9747 80.9049 68.8 79.7349 67.3509 79.7349C65.9018 79.7349 64.7271 80.9049 64.7271 82.3481C64.7271 83.7914 65.9018 84.9614 67.3509 84.9614Z" stroke="#8B8CC4" stroke-width="1.2802" stroke-miterlimit="10"/>
        <path d="M63.6289 81.558H64.8493" stroke="#8B8CC4" stroke-width="1.2802" stroke-miterlimit="10"/>
        <path d="M74.1239 84.5967C71.6221 84.6574 69.6085 83.6851 69.6085 83.6851C69.4254 83.5027 69.5474 83.3204 69.8525 83.2596C70.1576 83.1989 71.0729 83.0773 71.0729 83.0773L69.6695 81.011C69.4864 80.8287 69.6085 80.221 70.1576 80.4641C70.7068 80.7679 71.0729 81.011 71.9882 81.3757C72.9035 81.8618 74.6121 83.7458 74.6121 83.7458L74.1239 84.5967Z" fill="#E0BB95"/>
        <path d="M62.8966 85.2044C63.0796 85.3867 63.2017 85.5083 63.3847 85.6298C63.5678 85.6906 63.6898 85.7514 63.9339 85.8121C64.1169 85.8729 64.3 85.8729 64.4831 85.8729C64.6661 85.8729 64.9102 85.8729 65.0933 85.8121H65.1543C65.2153 85.7514 65.3373 85.8729 65.3984 85.9337C65.3984 85.9944 65.3984 85.9945 65.3984 86.0552C65.2763 86.3591 64.9712 86.6022 64.7271 86.663C64.422 86.7845 64.1169 86.7845 63.8118 86.7237C63.5068 86.663 63.2017 86.4806 63.0186 86.2375C62.7745 85.9944 62.6525 85.6906 62.7135 85.3259C62.6525 85.2044 62.7745 85.1436 62.8966 85.2044C62.8355 85.1436 62.7745 85.1436 62.8966 85.2044Z" fill="#9B643D"/>
        <path d="M61.1273 83.3813C61.4306 83.3813 61.6765 82.9459 61.6765 82.4089C61.6765 81.8719 61.4306 81.4365 61.1273 81.4365C60.824 81.4365 60.5781 81.8719 60.5781 82.4089C60.5781 82.9459 60.824 83.3813 61.1273 83.3813Z" fill="#33312D"/>
        <path d="M67.2899 83.3813C67.5932 83.3813 67.8391 82.9459 67.8391 82.4089C67.8391 81.8719 67.5932 81.4365 67.2899 81.4365C66.9866 81.4365 66.7407 81.8719 66.7407 82.4089C66.7407 82.9459 66.9866 83.3813 67.2899 83.3813Z" fill="#33312D"/>
        <path d="M74.1242 78.8232C74.1242 79.3702 74.0632 79.9172 73.9411 80.4641C71.1342 80.2818 68.6935 78.7625 67.168 76.5746C68.0833 75.1768 68.6324 73.536 68.6324 71.7735C68.6324 71.1658 68.5714 70.5581 68.4494 69.9503C71.8665 71.4697 74.1242 74.873 74.1242 78.8232Z" fill="#594539"/>
        <path d="M68.5715 69.8288C68.6936 70.3757 68.7546 71.0442 68.7546 71.652C68.7546 73.4144 68.2054 75.116 67.2901 76.4531C66.3749 75.0553 65.8257 73.4144 65.8257 71.652C65.8257 70.7404 66.0087 69.8895 66.2528 69.0387C67.0461 69.2818 67.8393 69.5857 68.5715 69.8288Z" fill="#594539"/>
        <path d="M67.2901 76.5138C65.7036 78.884 63.0188 80.4033 59.9678 80.4033C57.8931 80.4033 55.9405 79.674 54.354 78.4585C54.5371 73.1713 58.8694 68.9171 64.3002 68.9171C64.9714 68.9171 65.6426 68.9779 66.2528 69.0994C66.0087 69.8895 65.8256 70.8011 65.8256 71.7127C65.8256 73.4751 66.3748 75.116 67.2901 76.5138Z" fill="#594539"/>
        <path d="M71.9883 70.0111H56.3063L55.147 69.4034L56.3063 68.7957H71.9883C72.2934 68.7957 72.5375 69.0995 72.5375 69.4034C72.5375 69.768 72.2934 70.0111 71.9883 70.0111Z" fill="#E38BB0"/>
        <path d="M64.3 72.9282C67.0634 72.9282 69.3036 70.697 69.3036 67.9447C69.3036 65.1925 67.0634 62.9613 64.3 62.9613C61.5366 62.9613 59.2964 65.1925 59.2964 67.9447C59.2964 70.697 61.5366 72.9282 64.3 72.9282Z" fill="#594539"/>
        <path d="M64.3 72.9282C67.0634 72.9282 69.3036 70.697 69.3036 67.9447C69.3036 65.1925 67.0634 62.9613 64.3 62.9613C61.5366 62.9613 59.2964 65.1925 59.2964 67.9447C59.2964 70.697 61.5366 72.9282 64.3 72.9282Z" fill="url(#paint16_radial)"/>
        <path d="M64.3002 88.7293C69.7933 88.7293 74.2463 84.2942 74.2463 78.8232C74.2463 73.3522 69.7933 68.9171 64.3002 68.9171C58.8071 68.9171 54.354 73.3522 54.354 78.8232C54.354 84.2942 58.8071 88.7293 64.3002 88.7293Z" fill="#594539"/>
        <path d="M73.3308 93.7127C71.9273 92.8619 70.4629 92.1934 68.8154 91.7679C68.8154 91.7679 68.5103 91.7072 68.3882 91.6464C67.717 91.4033 67.2289 90.7956 67.2289 90.0663V89.0331V83.3204H61.249V89.337V90.0055C61.249 91.0994 60.2116 91.5856 59.6625 91.6464L59.6014 91.7072C58.0149 92.1326 56.7335 93.2265 55.3301 94.0166L73.1477 93.895C73.1477 93.9558 73.3308 93.7127 73.3308 93.7127Z" fill="url(#paint17_radial)"/>
        <path d="M64.3003 88.79C68.5128 88.79 71.9277 85.3889 71.9277 81.1934C71.9277 76.9978 68.5128 73.5967 64.3003 73.5967C60.0878 73.5967 56.6729 76.9978 56.6729 81.1934C56.6729 85.3889 60.0878 88.79 64.3003 88.79Z" fill="#E0BB95"/>
        <path d="M64.2998 74.5691V88.7293C68.5101 88.7293 71.9272 85.326 71.9272 81.1326C71.9272 78.337 70.3407 75.7845 68.083 74.5083L64.2998 74.5691Z" fill="url(#paint18_linear)"/>
        <path d="M80.8972 107.326C80.8972 102.403 78.6395 97.9668 75.1614 95.0497C74.6122 94.5635 74.002 94.1381 73.4528 93.7734H55.269C54.8419 94.0165 54.4758 94.3204 54.0487 94.5635C50.2044 97.4806 47.7026 102.099 47.7026 107.326V110H80.8972V107.326Z" fill="url(#paint19_linear)"/>
        <path d="M59.6627 91.6464C53.3777 93.2265 48.6182 98.5745 47.7029 105.138C47.7029 105.138 47.7029 105.138 47.7029 105.199C47.6419 105.381 47.3978 107.387 46.8486 110H59.6627V91.6464Z" fill="white"/>
        <path d="M80.7752 105.32C79.982 98.6961 75.1004 93.3481 68.8154 91.7679V110H81.6295C81.6295 110 80.8363 105.503 80.7752 105.32Z" fill="url(#paint20_radial)"/>
        <path d="M67.3511 79.3093C66.0697 79.3093 65.0324 80.0386 64.6053 81.1325H63.9341C63.4459 80.0386 62.4086 79.3093 61.1882 79.3093C59.5407 79.3093 58.1982 80.6463 58.1982 82.2872C58.1982 83.9281 59.5407 85.2651 61.1882 85.2651C62.8357 85.2651 64.1781 83.9281 64.1781 82.2872C64.1781 82.1657 64.1781 82.0441 64.1171 81.8618H64.4222C64.4222 81.9834 64.3612 82.1049 64.3612 82.2872C64.3612 83.9281 65.7036 85.2651 67.3511 85.2651C68.9987 85.2651 70.3411 83.9281 70.3411 82.2872C70.3411 80.6463 68.9987 79.3093 67.3511 79.3093ZM61.1272 84.5358C59.9068 84.5358 58.8695 83.5635 58.8695 82.2872C58.8695 81.011 59.8458 80.0386 61.1272 80.0386C62.3476 80.0386 63.3849 81.011 63.3849 82.2872C63.3849 83.5635 62.3476 84.5358 61.1272 84.5358ZM67.3511 84.5358C66.1308 84.5358 65.0934 83.5635 65.0934 82.2872C65.0934 81.011 66.0697 80.0386 67.3511 80.0386C68.6326 80.0386 69.6089 81.011 69.6089 82.2872C69.6089 83.5635 68.6326 84.5358 67.3511 84.5358Z" fill="#8B8CC4"/>
        <path d="M74.1239 84.5967C71.6221 84.6574 69.6085 83.6851 69.6085 83.6851C69.4254 83.5027 69.5474 83.3204 69.8525 83.2596C70.1576 83.1989 71.0729 83.0773 71.0729 83.0773L69.6695 81.011C69.4864 80.8287 69.6085 80.221 70.1576 80.4641C70.7068 80.7679 71.0729 81.011 71.9882 81.3757C72.9035 81.8618 74.6121 83.7458 74.6121 83.7458L74.1239 84.5967Z" fill="#E0BB95"/>
        <path d="M63.1408 85.3259C63.4459 85.6298 64.3002 85.9944 65.0934 85.8121C65.0934 85.8121 65.5816 85.6906 65.4596 86.0552C65.3985 86.2375 64.8494 86.7845 64.1171 86.663C63.5069 86.6022 63.0798 86.3591 62.8357 85.6298C62.7137 85.3867 62.8967 85.0221 63.1408 85.3259Z" fill="#BF8F68"/>
        <path d="M61.1273 83.3813C61.4306 83.3813 61.6765 82.9459 61.6765 82.4089C61.6765 81.8719 61.4306 81.4365 61.1273 81.4365C60.824 81.4365 60.5781 81.8719 60.5781 82.4089C60.5781 82.9459 60.824 83.3813 61.1273 83.3813Z" fill="#33312D"/>
        <path d="M67.2899 83.3813C67.5932 83.3813 67.8391 82.9459 67.8391 82.4089C67.8391 81.8719 67.5932 81.4365 67.2899 81.4365C66.9866 81.4365 66.7407 81.8719 66.7407 82.4089C66.7407 82.9459 66.9866 83.3813 67.2899 83.3813Z" fill="#33312D"/>
        <path d="M54.354 78.4585C55.9405 79.674 57.8321 80.4033 59.9678 80.4033C63.0188 80.4033 65.7036 78.8232 67.2901 76.5138C68.8156 78.7016 71.2564 80.221 74.0633 80.4033C74.1853 79.8563 74.2463 79.3094 74.2463 78.7624C74.2463 76.6961 69.3038 71.348 64.1171 70.9226C59.6017 70.558 55.0252 74.5083 54.354 78.4585Z" fill="#594539"/>
        <path d="M68.8154 91.8288H77.1751C77.9683 91.8288 78.3345 90.7956 77.6632 90.3094L72.6597 86.663L74.4292 83.442L86.7551 87.2707C92.613 89.094 93.0401 97.1768 87.4263 99.6685L72.8427 106.05L68.8154 91.8288Z" fill="white"/>
        <path d="M126.418 18.9613H117.021C114.092 18.9613 111.712 16.5912 111.712 13.6133V11.7293C111.712 8.75139 114.092 6.38123 117.021 6.38123H123.489C126.418 6.38123 128.798 8.75139 128.798 11.7293V16.5912C128.737 17.9282 127.699 18.9613 126.418 18.9613Z" fill="white"/>
        <path d="M124.282 18.2928L127.272 21.0276C127.821 21.5746 128.798 21.1492 128.798 20.4199V13.9171L124.282 18.2928Z" fill="white"/>
        <path d="M48.9844 55.1823L55.3914 51.2321L60.8221 55.1823H48.9844Z" fill="url(#paint21_linear)"/>
        <path d="M77.6631 55.1823H87.0601C87.0601 55.1823 85.8397 47.768 83.2158 45.5801C80.592 43.3923 77.8461 43.7569 77.8461 43.7569L77.6631 55.1823Z" fill="url(#paint22_linear)"/>
        <path d="M124.099 12.6408L123.977 12.2762H122.33C122.146 11.9723 121.963 11.6684 121.719 11.3646C121.292 10.7568 120.987 10.3314 120.743 10.2099C120.255 9.84523 119.95 9.54136 119.767 9.48059C119.279 9.05517 118.973 8.69053 118.912 8.44744C118.851 8.20434 118.79 8.02202 118.668 7.90048C118.607 7.8397 118.546 7.77893 118.424 7.77893C118.302 7.77893 118.119 7.90048 117.997 8.0828C117.814 8.32589 117.814 8.75131 117.997 9.17672C118.119 9.48059 118.241 9.72368 118.363 9.906C118.546 10.1491 118.607 10.3314 118.668 10.3922C118.79 10.5745 118.79 10.8176 118.79 11.0607C118.424 11.0607 118.058 11.1215 117.692 11.243C116.96 11.4253 116.594 11.7292 116.594 12.0938C116.594 12.2154 116.594 12.3369 116.655 12.3977C116.716 12.5193 116.777 12.58 116.838 12.58L116.655 12.7016C116.533 12.8231 116.472 13.0054 116.472 13.2485C116.472 13.3701 116.533 13.4916 116.655 13.5524C116.716 13.6132 116.777 13.6132 116.838 13.674L116.716 13.8563C116.655 13.9778 116.655 14.1601 116.716 14.3425C116.716 14.464 116.838 14.5856 116.899 14.6463C117.021 14.7071 117.082 14.7679 117.143 14.7679V15.1933C117.204 15.4972 117.265 15.6795 117.448 15.801C117.875 15.9834 118.058 16.1049 118.119 16.1049C118.424 16.2264 118.851 16.2264 119.462 16.1657C120.011 16.1049 120.621 16.0441 121.292 15.8618C121.597 15.801 121.902 15.7403 122.146 15.6795H123.794C123.855 15.5579 123.916 15.3756 123.977 15.1933C124.099 14.7679 124.16 14.4032 124.16 14.0386C124.221 13.4309 124.16 13.0054 124.099 12.6408Z" fill="#FDCE4C"/>
        <path d="M119.278 12.8232C119.156 12.8839 119.034 13.0663 119.034 13.4917C119.034 13.8563 119.034 14.1602 119.095 14.5248C119.095 14.6464 119.095 14.9502 119.095 15.3149C119.095 15.558 119.156 15.6795 119.278 15.6187C119.461 15.558 119.644 15.3756 119.827 15.0718C120.01 14.7679 120.072 14.464 120.072 14.221C120.01 13.8563 119.888 13.5524 119.766 13.3093C119.583 12.9447 119.4 12.7624 119.278 12.8232Z" fill="url(#paint23_linear)"/>
        <path d="M118.973 12.3977C118.851 12.2761 118.912 12.3977 119.156 12.8839C119.339 13.3701 119.705 13.6132 120.194 13.7347C120.682 13.7955 121.048 13.7955 121.292 13.7347C120.621 13.6132 120.194 13.3701 119.888 13.0054C119.583 12.6408 119.461 12.2761 119.4 11.9115C119.156 12.3369 119.034 12.5192 118.973 12.3977Z" fill="url(#paint24_linear)"/>
        <path d="M118.546 12.3978C118.485 12.5193 118.363 12.5801 118.302 12.6409C118.607 12.884 118.668 13.1271 118.607 13.4309C118.546 13.5525 118.485 13.674 118.424 13.7956C118.729 14.0387 118.851 14.2818 118.79 14.5249C118.79 14.6464 118.729 14.768 118.607 14.8287C118.79 15.011 118.851 15.2541 118.851 15.558C118.851 15.7403 118.851 15.8619 118.79 16.0442C119.095 15.9227 119.279 15.6796 119.34 15.3149V14.8287C119.523 14.5856 119.584 14.3425 119.462 14.0994L119.279 13.7348C119.462 13.6133 119.523 13.3702 119.462 13.0663L119.279 12.6409C119.34 12.3978 119.218 12.2155 118.912 12.0331C118.729 11.9116 118.607 11.8508 118.424 11.8508C118.668 12.0332 118.729 12.2155 118.546 12.3978Z" fill="#FDCE4C"/>
        <path d="M117.204 14.7679H119.217" stroke="#AC8662" stroke-width="0.3641" stroke-linecap="round" stroke-linejoin="round"/>
        <path d="M116.899 13.674H119.218" stroke="#AC8662" stroke-width="0.3641" stroke-linecap="round" stroke-linejoin="round"/>
        <path d="M116.899 12.5801H119.218" stroke="#AC8662" stroke-width="0.3641" stroke-linecap="round" stroke-linejoin="round"/>
    </g>
        <path d="M9.78442 19.5868C15.1882 19.5868 19.5688 15.2021 19.5688 9.79339C19.5688 4.38465 15.1882 0 9.78442 0C4.38063 0 0 4.38465 0 9.79339C0 15.2021 4.38063 19.5868 9.78442 19.5868Z" fill="#6264A7"/>
        <path d="M7.39736 4.31647C7.9803 4.15631 8.81709 3.99855 9.84913 4.00001C10.8805 4.00147 11.7166 4.15912 12.2991 4.31841C12.5904 4.39808 12.8186 4.47825 12.9766 4.53977C13.0556 4.57054 13.1171 4.59666 13.1602 4.61577C13.1846 4.62659 13.2089 4.63763 13.2329 4.64939C13.2569 4.66115 12.8943 5.32156 13.2335 4.64967C13.458 4.76073 13.5491 5.03096 13.4369 5.25323C13.3249 5.47516 13.0526 5.56539 12.8282 5.45515L12.8274 5.45474L12.8215 5.45196C12.815 5.44893 12.804 5.44385 12.7886 5.437C12.7577 5.42331 12.7091 5.40258 12.6437 5.37711C12.5128 5.32614 12.3149 5.25628 12.057 5.18574C11.5409 5.04461 10.7862 4.90116 9.84784 4.89983C8.91019 4.89851 8.15607 5.04186 7.64052 5.18351C7.3828 5.25432 7.18508 5.3246 7.05438 5.37589C6.98904 5.40153 6.94053 5.4224 6.90971 5.43618C6.8943 5.44307 6.88332 5.44818 6.87689 5.45123L6.87066 5.45421C6.64655 5.5659 6.3738 5.47651 6.26081 5.25472C6.14777 5.03286 6.23785 4.7623 6.462 4.65042L6.46327 4.64979L6.46498 4.64895L6.46975 4.64661L6.48464 4.63948C6.49692 4.63366 6.51391 4.62578 6.53549 4.61613C6.57865 4.59683 6.64022 4.57046 6.7193 4.53942C6.87742 4.47737 7.10584 4.39657 7.39736 4.31647ZM6.66667 14.9502C6.46414 15.353 6.46441 15.3531 6.46441 15.3531L6.4654 15.3536L6.4671 15.3544L6.47185 15.3567L6.48668 15.3637C6.49893 15.3695 6.51588 15.3772 6.53743 15.3867C6.58051 15.4058 6.64199 15.4318 6.72097 15.4624C6.8789 15.5237 7.10708 15.6035 7.39832 15.6829C7.98068 15.8415 8.81669 15.9985 9.84784 16C10.8797 16.0014 11.7163 15.8443 12.2992 15.6848C12.5906 15.6051 12.819 15.5246 12.9771 15.4628C13.0562 15.4319 13.1177 15.4056 13.1609 15.3864C13.1825 15.3768 13.1994 15.3689 13.2117 15.3631L13.2266 15.356L13.2314 15.3537L13.2331 15.3529L13.2338 15.3525C13.2338 15.3525 13.2343 15.3522 13.0303 14.9502L13.2343 15.3522C13.4587 15.2407 13.5492 14.9703 13.4365 14.7482C13.3238 14.5263 13.0508 14.4367 12.8265 14.548L12.8207 14.5508C12.8143 14.5538 12.8033 14.5589 12.7879 14.5658C12.757 14.5795 12.7085 14.6003 12.6432 14.6259C12.5124 14.677 12.3147 14.747 12.0569 14.8175C11.5412 14.9587 10.787 15.1015 9.84913 15.1002C8.91058 15.0988 8.15569 14.9559 7.63956 14.8153C7.38155 14.745 7.1836 14.6754 7.0527 14.6246C6.98727 14.5993 6.93867 14.5786 6.90777 14.565C6.89232 14.5582 6.88131 14.5531 6.87484 14.5501L6.86895 14.5473C6.64425 14.4368 6.37154 14.5274 6.25973 14.7497C6.14788 14.9722 6.23967 15.2424 6.46441 15.3531L6.66667 14.9502ZM6.36364 6.70182C5.61052 6.70182 5 7.30612 5 8.05155V11.9508C5 12.6962 5.61052 13.3005 6.36364 13.3005H10.303C11.0561 13.3005 11.6667 12.6962 11.6667 11.9508V8.05155C11.6667 7.30612 11.0561 6.70182 10.303 6.70182H6.36364ZM14.2545 12.5964L12.2727 10.9617V9.04135L14.2547 7.4086C14.3902 7.29695 14.5787 7.27295 14.7384 7.34703C14.898 7.4211 15 7.57988 15 7.7544V12.2507C15 12.4253 14.898 12.5841 14.7383 12.6582C14.5785 12.7322 14.39 12.7081 14.2545 12.5964Z" fill="#FCFCFB"/>
    <defs>
        <radialGradient id="paint0_radial" cx="0" cy="0" r="1" gradientUnits="userSpaceOnUse" gradientTransform="translate(144.434 27.2123) rotate(180) scale(6.70906 5.78181)">
            <stop stop-color="#9B643D"/>
            <stop offset="0.19" stop-color="#B68661"/>
            <stop offset="0.4362" stop-color="#D3AB89"/>
            <stop offset="0.6617" stop-color="#E8C6A5"/>
            <stop offset="0.857" stop-color="#F5D6B7"/>
            <stop offset="1" stop-color="#FADCBD"/>
        </radialGradient>
        <radialGradient id="paint1_radial" cx="0" cy="0" r="1" gradientUnits="userSpaceOnUse" gradientTransform="translate(146.471 24.3327) rotate(11.9391) scale(4.09104 3.32784)">
            <stop stop-color="#9B643D"/>
            <stop offset="0.3214" stop-color="#B78763" stop-opacity="0.6785"/>
            <stop offset="0.9997" stop-color="#FADCBD" stop-opacity="0"/>
        </radialGradient>
        <linearGradient id="paint2_linear" x1="152.29" y1="54.2404" x2="158.672" y2="51.5647" gradientUnits="userSpaceOnUse">
            <stop stop-color="#605D5A"/>
            <stop offset="1" stop-color="#797673"/>
        </linearGradient>
        <linearGradient id="paint3_linear" x1="140.067" y1="54.234" x2="133.685" y2="51.5583" gradientUnits="userSpaceOnUse">
            <stop stop-color="#605D5A"/>
            <stop offset="1" stop-color="#797673"/>
        </linearGradient>
        <linearGradient id="paint4_linear" x1="143.837" y1="113.966" x2="143.837" y2="97.2928" gradientUnits="userSpaceOnUse">
            <stop stop-color="#C3C3E1"/>
            <stop offset="0.2369" stop-color="#DDDDEE"/>
            <stop offset="0.4803" stop-color="#F0F0F7"/>
            <stop offset="0.7315" stop-color="#FBFBFD"/>
            <stop offset="1" stop-color="white"/>
        </linearGradient>
        <linearGradient id="paint5_linear" x1="143.532" y1="82.155" x2="143.532" y2="89.4084" gradientUnits="userSpaceOnUse">
            <stop offset="0.00125628" stop-color="#BF8F68"/>
            <stop offset="1" stop-color="#E0BB95"/>
        </linearGradient>
        <linearGradient id="paint6_linear" x1="135.446" y1="85.4685" x2="135.446" y2="76.1633" gradientUnits="userSpaceOnUse">
            <stop offset="0.00125628" stop-color="#BF8F68"/>
            <stop offset="1" stop-color="#E0BB95"/>
        </linearGradient>
        <linearGradient id="paint7_linear" x1="151.007" y1="85.4686" x2="151.007" y2="76.1633" gradientUnits="userSpaceOnUse">
            <stop offset="0.00125628" stop-color="#BF8F68"/>
            <stop offset="1" stop-color="#E0BB95"/>
        </linearGradient>
        <radialGradient id="paint8_radial" cx="0" cy="0" r="1" gradientUnits="userSpaceOnUse" gradientTransform="translate(143.432 77.8433) rotate(0.723494) scale(5.02415 4.51028)">
            <stop stop-color="#9B643D"/>
            <stop offset="0.0843" stop-color="#A16B44" stop-opacity="0.9157"/>
            <stop offset="0.3896" stop-color="#B27F58" stop-opacity="0.6104"/>
            <stop offset="0.6952" stop-color="#BC8B64" stop-opacity="0.3048"/>
            <stop offset="1" stop-color="#BF8F68" stop-opacity="0"/>
        </radialGradient>
        <linearGradient id="paint9_linear" x1="143.199" y1="92.5847" x2="143.199" y2="87.6738" gradientUnits="userSpaceOnUse">
            <stop stop-color="#D34581"/>
            <stop offset="1" stop-color="#E38BB0"/>
        </linearGradient>
        <radialGradient id="paint10_radial" cx="0" cy="0" r="1" gradientUnits="userSpaceOnUse" gradientTransform="translate(65.448 30.3707) rotate(0.593453) scale(6.16024 5.475)">
            <stop stop-color="#724937"/>
            <stop offset="0.769" stop-color="#9B643D"/>
        </radialGradient>
        <linearGradient id="paint11_linear" x1="65.2437" y1="17.5813" x2="65.2437" y2="18.849" gradientUnits="userSpaceOnUse">
            <stop offset="0.0043" stop-color="#594539"/>
            <stop offset="1" stop-color="#9B643D"/>
        </linearGradient>
        <radialGradient id="paint12_radial" cx="0" cy="0" r="1" gradientUnits="userSpaceOnUse" gradientTransform="translate(65.3326 22.3716) rotate(1.16814) scale(4.4312 4.52869)">
            <stop stop-color="#724937"/>
            <stop offset="0.8157" stop-color="#9B643D"/>
        </radialGradient>
        <linearGradient id="paint13_linear" x1="65.4267" y1="17.5813" x2="65.4267" y2="18.849" gradientUnits="userSpaceOnUse">
            <stop offset="0.0043" stop-color="#594539"/>
            <stop offset="1" stop-color="#9B643D"/>
        </linearGradient>
        <radialGradient id="paint14_radial" cx="0" cy="0" r="1" gradientUnits="userSpaceOnUse" gradientTransform="translate(64.5327 72.6046) scale(8.38556 8.35177)">
            <stop offset="0.3127" stop-color="#231F20"/>
            <stop offset="0.8031" stop-color="#493931" stop-opacity="0.2865"/>
            <stop offset="1" stop-color="#594539" stop-opacity="0"/>
        </radialGradient>
        <linearGradient id="paint15_linear" x1="73.1435" y1="77.849" x2="65.0965" y2="81.7123" gradientUnits="userSpaceOnUse">
            <stop stop-color="#9B643D"/>
            <stop offset="0.4549" stop-color="#B98963" stop-opacity="0.545"/>
            <stop offset="0.9997" stop-color="#E0BB95" stop-opacity="0"/>
        </linearGradient>
        <radialGradient id="paint16_radial" cx="0" cy="0" r="1" gradientUnits="userSpaceOnUse" gradientTransform="translate(64.5327 72.6046) scale(8.38556 8.35177)">
            <stop offset="0.3127" stop-color="#231F20"/>
            <stop offset="0.8031" stop-color="#493931" stop-opacity="0.2865"/>
            <stop offset="1" stop-color="#594539" stop-opacity="0"/>
        </radialGradient>
        <radialGradient id="paint17_radial" cx="0" cy="0" r="1" gradientUnits="userSpaceOnUse" gradientTransform="translate(64.9001 85.585) scale(5.05906 5.03866)">
            <stop offset="0.0013" stop-color="#9B643D"/>
            <stop offset="0.9947" stop-color="#E0BB95"/>
        </radialGradient>
        <linearGradient id="paint18_linear" x1="73.6631" y1="77.6019" x2="65.6158" y2="81.465" gradientUnits="userSpaceOnUse">
            <stop stop-color="#9B643D"/>
            <stop offset="0.4549" stop-color="#B98963" stop-opacity="0.545"/>
            <stop offset="0.9997" stop-color="#E0BB95" stop-opacity="0"/>
        </linearGradient>
        <linearGradient id="paint19_linear" x1="64.2978" y1="129.585" x2="64.2978" y2="97.3184" gradientUnits="userSpaceOnUse">
            <stop stop-color="#D34581"/>
            <stop offset="1" stop-color="#E38BB0"/>
        </linearGradient>
        <radialGradient id="paint20_radial" cx="0" cy="0" r="1" gradientUnits="userSpaceOnUse" gradientTransform="translate(82.056 100.37) scale(8.32528 8.29172)">
            <stop offset="0.0013" stop-color="#6E6FAC"/>
            <stop offset="0.168" stop-color="#9A9BC5"/>
            <stop offset="0.3347" stop-color="#BEBFDA"/>
            <stop offset="0.5019" stop-color="#DBDBEA"/>
            <stop offset="0.6687" stop-color="#EFEFF6"/>
            <stop offset="0.8349" stop-color="#FBFBFD"/>
            <stop offset="1" stop-color="white"/>
        </radialGradient>
        <linearGradient id="paint21_linear" x1="40.3356" y1="53.2072" x2="54.0954" y2="53.2072" gradientUnits="userSpaceOnUse">
            <stop stop-color="#D34581"/>
            <stop offset="1" stop-color="#E8A1BF"/>
        </linearGradient>
        <linearGradient id="paint22_linear" x1="73.8628" y1="53.0414" x2="80.9686" y2="50.0622" gradientUnits="userSpaceOnUse">
            <stop stop-color="#D34581"/>
            <stop offset="0.1855" stop-color="#DB6697"/>
            <stop offset="0.3758" stop-color="#E180A9"/>
            <stop offset="0.5721" stop-color="#E592B5"/>
            <stop offset="0.7761" stop-color="#E79DBD"/>
            <stop offset="1" stop-color="#E8A1BF"/>
        </linearGradient>
        <linearGradient id="paint23_linear" x1="120.128" y1="14.3047" x2="118.497" y2="14.2825" gradientUnits="userSpaceOnUse">
            <stop stop-color="#B8895A" stop-opacity="0.2"/>
            <stop offset="1" stop-color="#B57E4A"/>
        </linearGradient>
        <linearGradient id="paint24_linear" x1="121.626" y1="13.4819" x2="120.104" y2="12.6676" gradientUnits="userSpaceOnUse">
            <stop stop-color="#F0C194" stop-opacity="0.4"/>
            <stop offset="1" stop-color="#CBA37C" stop-opacity="0.502"/>
        </linearGradient>
        <clipPath id="clip0">
            <rect width="170" height="110" fill="white" transform="translate(20)"/>
        </clipPath>
    </defs>
</svg>
